<svg xmlns="http://www.w3.org/2000/svg" viewBox="0 0 120.86 135.93"><defs><style>.cls-1{isolation:isolate;}.cls-2{fill:#dba36b;}.cls-3{fill:#b1c2b3;}.cls-4{fill:#63a69f;}.cls-5{fill:#ffd34d;}.cls-6{fill:#603913;}.cls-7{fill:#3a1900;}.cls-8{fill:#6d3100;}.cls-9{fill:#ad682a;}.cls-10{fill:#421717;}.cls-11{fill:#fff;}.cls-12{fill:#cd2d27;}.cls-13{fill:#ef4a6b;}.cls-14{fill:#c6123d;}.cls-15{fill:#778691;}.cls-16{fill:#231f20;mix-blend-mode:soft-light;}</style></defs><title>Asset 1</title><g class="cls-1"><g id="Layer_2" data-name="Layer 2"><g id="BACKGROUND_2" data-name="BACKGROUND 2"><path class="cls-2" d="M32.06,86.15A24.52,24.52,0,0,0,22.55,101s-.14,6.56,3.75,8,6.86-2.3,6.41-4.17a2.22,2.22,0,0,0,.67-2.82c-.83-1.81-2.9-3.54-4.34-3.4,0,0,2.08-5.64,6.19-7.61S32.06,86.15,32.06,86.15Z"/><path class="cls-2" d="M71.92,53.14l9-27.82s-5.21-6.21-4.24-9.3,3.47-4.36,5-4.12c0,0,1.21-5.76,7.22-4.14s8.39,7.94,7.83,10.77-6,5.38-7.21,5.47L77.71,59.18s-4.43-1.8-4.43-2.13S71.92,53.14,71.92,53.14Z"/><path class="cls-3" d="M64.11,109.13s-4.64-2.37-9.91,4.47-2.69,13.62.11,14.82A6.18,6.18,0,0,0,61.67,126a41.8,41.8,0,0,1,4.18-5.35C69.58,116.42,64.11,109.13,64.11,109.13Z"/><path class="cls-4" d="M43,84.53s2.18,12.15,7.71,16.28a9.33,9.33,0,0,0,10.77.5c.24-.08-2-9.24-2.09-9.48s-2.3-6-2.72-6.76-4-2.27-5.32-2.51a19.76,19.76,0,0,0-4.53-.47A31.58,31.58,0,0,0,43,84.53Z"/><path class="cls-5" d="M69.56,49.74s9.3,6.76,11.49,10c0,0-8,7.31-8.9,13.4,0,0,3.6,13.39,13.87,16.23,0,0-10.86,18.42-20.49,22.91,0,0-14.29-16.31-17.46-27.79,0,0-7,6.39-7.66,11.56,0,0-7.52-2.78-9.66-10.34,0,0,11.48-9.92,18.86-10.64s9.94-4.49,9.94-4.49l5.14-3.95s2.6-8.69,3-9.53S69.56,49.74,69.56,49.74Z"/><path class="cls-4" d="M64.32,70.53s4.7,7.36,10.17,8.31c0,0-1.68-3.71-1.84-4.18,0,0-4.87-2.73-7-5.74Z"/><path class="cls-6" d="M61.67,26.42s4.69-7.66-1.83-10.61c0,0-.46-10.75-11.45-10,0,0-2.68-7.35-12.66-4.15,0,0-9.16-5.18-15.6,3,0,0-9.26-1.72-11.81,8.88,0,0-8.73,2.4-5.52,13.38,0,0-5.22,3.91-1.41,12.39,0,0-4.65,10.16,6.22,12.58,0,0,3.56,8,10.57,9.42s9.53,3.93,9.53,3.93-5.77-19-6.4-19.89-2.82-8.79-2.08-10,4.07-7.53,5.68-8.79,14.45-6.61,15.32-7.12,6.49-.92,6.49-.92,4.29,5,4.66,5.21S61.67,26.42,61.67,26.42Z"/><path class="cls-2" d="M48.11,13s17.72,7.2,22.08,32.5S53.84,87.44,29,70a12.37,12.37,0,0,1-9.35-2.43c-4.69-3.46-3.73-8.14-1.06-8S24.15,62,24.15,62,13.88,48.11,12.36,45.36,18.45,14,48.11,13Z"/><ellipse class="cls-7" cx="35.17" cy="42.62" rx="2.24" ry="4.61" transform="translate(-19.33 33.5) rotate(-40.96)"/><ellipse class="cls-7" cx="47.43" cy="32.91" rx="2.24" ry="4.61" transform="translate(-9.96 39.15) rotate(-40.96)"/><path class="cls-8" d="M29.59,32l.63,1.25s-6.4,1.84-5.53,7.46L22.1,39.39S22.88,32.38,29.59,32Z"/><path class="cls-8" d="M38.29,24.89,40,26.09a5.48,5.48,0,0,1,5.64-3.75l-1.56-2.53S38.84,20.26,38.29,24.89Z"/><path class="cls-9" d="M44.93,38.93a10.79,10.79,0,0,0,3,.64c.75-.13,3.19-2.48,4.06-2.49s2.55.9,2.73,3.4a16.52,16.52,0,0,1-1.12,5.84,6.47,6.47,0,0,0,2.87-5.9c-.12-4.25-3.08-5.73-4.87-5.17a23.71,23.71,0,0,1-3.69,2.94A12.73,12.73,0,0,1,44.93,38.93Z"/><path class="cls-9" d="M53,68.66s8.43,1.1,9.8-4.41C62.79,64.25,63.1,71.91,53,68.66Z"/><path class="cls-10" d="M60.47,62.19A6.71,6.71,0,0,0,61.14,61,27.88,27.88,0,0,0,59,50.13c-2.23.93-8.34,4.21-12.35,13.25a15.61,15.61,0,0,0,1.46.93C52.4,59.48,58.07,61.16,60.47,62.19Z"/><path class="cls-11" d="M59,50.13a26.55,26.55,0,0,0-1.92-3.84A21.55,21.55,0,0,0,49,52.77c-3.51,4.61-5.46,6-7.71,4.93a23.44,23.44,0,0,0,5.44,5.67C50.7,54.34,56.81,51.06,59,50.13Z"/><path class="cls-12" d="M60.47,62.19c-2.4-1-8.07-2.71-12.32,2.12a11.05,11.05,0,0,0,4.4,1.43A8.2,8.2,0,0,0,60.47,62.19Z"/><path class="cls-9" d="M81.61,11.9s4.53,1.4,4.87,4.53-3.3,2-4.43,1.47c0,0,3,2.85,5.51,1.58s.71-7-5.53-8.78Z"/><path class="cls-4" d="M49.63,77.18s1.19,6.15-.48,10.44c0,0,1.86,4.82,2.73,5.6s3.07-9.57.44-16.29Z"/><path class="cls-13" d="M100.71,64.4,86,89.37,65.53,112.27l.7,4.24s-.76-1-3.63-1.22-5.6,3.54-5.32,7.42,2.43,11.11,6.9,12.7,15.46,1.26,18.75-27l28.22-33.33Z"/><path class="cls-14" d="M66.23,116.52s.79,5.66.07,9.25c0,0-1.11-9-2.14-10.24A3,3,0,0,1,66.23,116.52Z"/><path class="cls-3" d="M93.74,52.83S94.3,79,114,75.89c0,0-7.67-9.44-7.94-10.14s-6.23-7.27-7.29-8.43S93.74,52.83,93.74,52.83Z"/><ellipse class="cls-15" cx="107.33" cy="60.54" rx="9.75" ry="18" transform="translate(-14.43 79.52) rotate(-38.28)"/><path class="cls-16" d="M18,64.59s2.63,5.36,11.29,5.09c0,0,16.49,11.94,29.9,4.29,0,0-12.91,5.45-30.42-6.87A12,12,0,0,1,18,64.59Z"/><polygon class="cls-16" points="91.68 22.57 86.95 23.44 75.81 54.01 78.23 55.57 88.72 23.8 91.68 22.57"/><path class="cls-16" d="M32.05,89.82s1.1,1.69,1.6,1.78c0,0-4.39,3.82-4.9,7.16C28.74,98.77,28.3,94.85,32.05,89.82Z"/><path class="cls-16" d="M39.74,95.21s2.13-7.34,8.56-11.3c0,0,6.81,17.52,17,27.16l1.77-2s-14.34-15-18.36-28.37c0,0-8.59,7-11.29,13.32Z"/><path class="cls-16" d="M47.47,96s2.93,6.71,9.92,6.41c0,0-4.23-5.93-5.15-7.63C52.25,94.75,49.81,96.43,47.47,96Z"/><path class="cls-16" d="M82.51,106.61l19.76-31.82s4.74,2.06,6.14,1.95Z"/></g></g></g></svg>